<?xml version="1.0" encoding="utf-8"?>
<!-- Generator: Adobe Illustrator 19.0.0, SVG Export Plug-In . SVG Version: 6.00 Build 0)  -->
<svg version="1.1" id="Livello_1" xmlns="http://www.w3.org/2000/svg" xmlns:xlink="http://www.w3.org/1999/xlink" x="0px" y="0px"
	 viewBox="473 24 24 24" style="enable-background:new 473 24 24 24;" xml:space="preserve">

<path d="M490.9,33.9c-0.1-0.2-0.3-0.3-0.5-0.3h-4.1l0.5-6.5c0-0.3-0.1-0.5-0.4-0.6c-0.3-0.1-0.5,0-0.7,0.2l-6.5,10.1
	c-0.1,0.2-0.1,0.4,0,0.6c0.1,0.2,0.3,0.3,0.5,0.3h4.1l-0.5,7.1c0,0.3,0.1,0.5,0.4,0.6c0.1,0,0.1,0,0.2,0c0.2,0,0.4-0.1,0.5-0.3
	l6.5-10.7C491,34.3,491,34.1,490.9,33.9L490.9,33.9z M484.6,42.5l0.4-5.3c0-0.2,0-0.3-0.2-0.4c-0.1-0.1-0.3-0.2-0.4-0.2h-3.7
	l4.7-7.2l-0.4,4.8c0,0.2,0,0.3,0.2,0.5c0.1,0.1,0.3,0.2,0.4,0.2h3.7L484.6,42.5L484.6,42.5z" fill="#737373"/>
<path d="M490.9,33.9c-0.1-0.2-0.3-0.3-0.5-0.3h-4.1l0.5-6.5c0-0.3-0.1-0.5-0.4-0.6c-0.3-0.1-0.5,0-0.7,0.2l-6.5,10.1
	c-0.1,0.2-0.1,0.4,0,0.6c0.1,0.2,0.3,0.3,0.5,0.3h4.1l-0.5,7.1c0,0.3,0.1,0.5,0.4,0.6c0.1,0,0.1,0,0.2,0c0.2,0,0.4-0.1,0.5-0.3
	l6.5-10.7C491,34.3,491,34.1,490.9,33.9z"/>
</svg>
